<svg xmlns="http://www.w3.org/2000/svg" width="748" height="748" viewBox="0 0 748 748">
  <path id="Subtraction_5" data-name="Subtraction 5" d="M374,748a379.987,379.987,0,0,1-38.239-1.931A373.44,373.44,0,0,1,1.931,412.24a379.608,379.608,0,0,1,0-76.479A373.441,373.441,0,0,1,335.761,1.931a379.608,379.608,0,0,1,76.479,0,373.44,373.44,0,0,1,333.829,333.83,379.6,379.6,0,0,1,0,76.479A373.439,373.439,0,0,1,412.24,746.069,379.986,379.986,0,0,1,374,748Zm.5-655C219.28,93,93,219.28,93,374.5S219.28,656,374.5,656,656,529.72,656,374.5,529.72,93,374.5,93Z" fill="#fcb415" opacity="0.1"/>
</svg>
