<svg xmlns="http://www.w3.org/2000/svg" width="58" height="50.606" viewBox="0 0 58 50.606">
  <g id="customer" transform="translate(0 -32.631)">
    <circle id="Ellipse_5" data-name="Ellipse 5" cx="10" cy="10" r="10" transform="translate(19 32.631)" fill="#fff"/>
    <ellipse id="Ellipse_6" data-name="Ellipse 6" cx="6" cy="6.5" rx="6" ry="6.5" transform="translate(43 39.632)" fill="#fff"/>
    <ellipse id="Ellipse_7" data-name="Ellipse 7" cx="6" cy="6.5" rx="6" ry="6.5" transform="translate(3 39.632)" fill="#fff"/>
    <path id="Path_15" data-name="Path 15" d="M15.2,242.283c-2.453-2.009-4.674-1.743-7.509-1.743A7.678,7.678,0,0,0,0,248.185v12.371a3.329,3.329,0,0,0,3.332,3.319c7.933,0,6.977.144,6.977-.342C10.309,254.767,9.27,248.338,15.2,242.283Z" transform="translate(0 -184.346)" fill="#fff"/>
    <path id="Path_16" data-name="Path 16" d="M138.267,239.984c-4.953-.413-9.258,0-12.972,3.07-6.214,4.978-5.018,11.68-5.018,19.879a3.974,3.974,0,0,0,3.967,3.967c23.912,0,24.863.771,26.281-2.369.465-1.062.338-.724.338-10.883C150.863,245.579,143.876,239.984,138.267,239.984Z" transform="translate(-106.57 -183.745)" fill="#fff"/>
    <path id="Path_17" data-name="Path 17" d="M385.319,240.541c-2.851,0-5.06-.263-7.509,1.743,5.887,6.01,4.893,12,4.893,21.25,0,.489-.793.342,6.858.342a3.447,3.447,0,0,0,3.451-3.437V248.186A7.678,7.678,0,0,0,385.319,240.541Z" transform="translate(-335.011 -184.348)" fill="#fff"/>
  </g>
</svg>
