<svg xmlns="http://www.w3.org/2000/svg" width="15.388" height="15.384" viewBox="0 0 15.388 15.384">
  <path id="Icon_awesome-instagram" data-name="Icon awesome-instagram" d="M7.69,5.985A3.944,3.944,0,1,0,11.635,9.93,3.938,3.938,0,0,0,7.69,5.985Zm0,6.509A2.564,2.564,0,1,1,10.255,9.93,2.569,2.569,0,0,1,7.69,12.494Zm5.026-6.67a.92.92,0,1,1-.92-.92A.918.918,0,0,1,12.716,5.824Zm2.612.934a4.553,4.553,0,0,0-1.243-3.223,4.583,4.583,0,0,0-3.223-1.243c-1.27-.072-5.077-.072-6.347,0A4.576,4.576,0,0,0,1.291,3.531,4.568,4.568,0,0,0,.049,6.754c-.072,1.27-.072,5.077,0,6.347a4.553,4.553,0,0,0,1.243,3.223,4.589,4.589,0,0,0,3.223,1.243c1.27.072,5.077.072,6.347,0a4.553,4.553,0,0,0,3.223-1.243A4.583,4.583,0,0,0,15.328,13.1c.072-1.27.072-5.074,0-6.344Zm-1.641,7.707a2.6,2.6,0,0,1-1.462,1.462,16.955,16.955,0,0,1-4.535.309,17.087,17.087,0,0,1-4.535-.309,2.6,2.6,0,0,1-1.462-1.462A16.955,16.955,0,0,1,1.384,9.93,17.087,17.087,0,0,1,1.693,5.4,2.6,2.6,0,0,1,3.156,3.933,16.955,16.955,0,0,1,7.69,3.624a17.087,17.087,0,0,1,4.535.309A2.6,2.6,0,0,1,13.687,5.4,16.955,16.955,0,0,1,14,9.93,16.945,16.945,0,0,1,13.687,14.465Z" transform="translate(0.005 -2.238)"/>
</svg>
