<svg xmlns="http://www.w3.org/2000/svg" width="15.388" height="15.387" viewBox="0 0 15.388 15.387">
  <path id="Icon_awesome-linkedin-in" data-name="Icon awesome-linkedin-in" d="M3.444,15.388H.254V5.115h3.19ZM1.848,3.713A1.856,1.856,0,1,1,3.7,1.848,1.863,1.863,0,0,1,1.848,3.713ZM15.384,15.388H12.2v-5c0-1.192-.024-2.72-1.659-2.72-1.659,0-1.913,1.295-1.913,2.634v5.087H5.443V5.115H8.5v1.4h.045a3.352,3.352,0,0,1,3.018-1.659c3.229,0,3.822,2.126,3.822,4.888v5.643Z" transform="translate(0 -0.001)"/>
</svg>
