<svg xmlns="http://www.w3.org/2000/svg" width="398" height="697.333" viewBox="0 0 398 697.333">
  <g id="Group_31368" data-name="Group 31368" transform="translate(-65)">
    <path id="Subtraction_20" data-name="Subtraction 20" d="M87.892,0A315.544,315.544,0,0,0,56.186,1.6,311.452,311.452,0,0,0,25.395,6.291C16.9,8.027,8.354,10.155,0,12.617V93.492a231.837,231.837,0,0,1,88.307-17.32c128.7,0,233.41,104.555,233.41,233.07A232.616,232.616,0,0,1,264.456,462h93.477a309.586,309.586,0,0,0,15.7-31.812,307.858,307.858,0,0,0,18.07-58.126,310.37,310.37,0,0,0,4.7-30.745,313.908,313.908,0,0,0,0-63.322,310.23,310.23,0,0,0-4.7-30.745,307.811,307.811,0,0,0-18.07-58.126,309.546,309.546,0,0,0-28.592-52.6,311.565,311.565,0,0,0-83.762-83.64A308.632,308.632,0,0,0,150.39,6.291C140.266,4.222,129.907,2.643,119.6,1.6A315.543,315.543,0,0,0,87.892,0Z" transform="translate(463 462) rotate(180)" fill="#fff" opacity="0.07"/>
    <path id="Subtraction_17" data-name="Subtraction 17" d="M0,0V89.355a235.953,235.953,0,0,1,68.106,80.714A231.905,231.905,0,0,1,86.975,220.7a233.415,233.415,0,0,1,6.641,55.367,233.413,233.413,0,0,1-6.641,55.367,231.907,231.907,0,0,1-18.869,50.626A235.955,235.955,0,0,1,0,462.77v90.184A310.983,310.983,0,0,0,33.227,533.4a312.047,312.047,0,0,0,45.856-37.835,312.136,312.136,0,0,0,37.835-45.856,309.852,309.852,0,0,0,28.567-52.631,308.207,308.207,0,0,0,18.054-58.161,310.552,310.552,0,0,0,4.7-30.765,314.751,314.751,0,0,0,1.6-31.68,314.748,314.748,0,0,0-1.6-31.68,310.55,310.55,0,0,0-4.7-30.765,308.19,308.19,0,0,0-18.054-58.161,309.813,309.813,0,0,0-28.567-52.631A312.088,312.088,0,0,0,79.083,57.385,312.036,312.036,0,0,0,33.227,19.55,311.163,311.163,0,0,0,0,0Z" transform="translate(463 697.333) rotate(180)" fill="#fff" opacity="0.07"/>
  </g>
</svg>
