<svg xmlns="http://www.w3.org/2000/svg" width="370.916" height="249.001" viewBox="0 0 370.916 249.001">
  <path id="Subtraction_24" data-name="Subtraction 24" d="M2511.746,169h-72.662c.795-5.434,1.749-10.884,2.836-16.2a290.056,290.056,0,0,1,43.848-104.255A292.289,292.289,0,0,1,2613.979-57.089a289.879,289.879,0,0,1,54.7-16.988,292.21,292.21,0,0,1,28.934-4.419,295.9,295.9,0,0,1,59.59,0,292.237,292.237,0,0,1,28.934,4.419c7.991,1.637,16.02,3.641,23.863,5.956V8.029A217.468,217.468,0,0,0,2727.018-8.28C2622.34-8.28,2531.8,66.277,2511.746,169Z" transform="translate(-2439.084 80)" fill="#fff" opacity="0.07"/>
</svg>
