<svg xmlns="http://www.w3.org/2000/svg" width="18.547" height="15.064" viewBox="0 0 18.547 15.064">
  <path id="Icon_awesome-twitter" data-name="Icon awesome-twitter" d="M16.641,7.135c.012.165.012.33.012.494A10.741,10.741,0,0,1,5.837,18.445,10.742,10.742,0,0,1,0,16.738a7.864,7.864,0,0,0,.918.047,7.613,7.613,0,0,0,4.719-1.624,3.808,3.808,0,0,1-3.554-2.636,4.794,4.794,0,0,0,.718.059,4.02,4.02,0,0,0,1-.129A3.8,3.8,0,0,1,.753,8.724V8.677a3.828,3.828,0,0,0,1.718.482A3.807,3.807,0,0,1,1.295,4.075,10.8,10.8,0,0,0,9.132,8.053a4.291,4.291,0,0,1-.094-.871,3.8,3.8,0,0,1,6.579-2.6,7.484,7.484,0,0,0,2.413-.918,3.791,3.791,0,0,1-1.671,2.095,7.62,7.62,0,0,0,2.189-.588,8.171,8.171,0,0,1-1.906,1.965Z" transform="translate(0 -3.381)"/>
</svg>
