<svg xmlns="http://www.w3.org/2000/svg" width="56.114" height="52.607" viewBox="0 0 56.114 52.607">
  <g id="vector-design" transform="translate(0 -16)">
    <path id="Path_13" data-name="Path 13" d="M52.763,42.587A24.912,24.912,0,0,0,40.309,22.576h6.244a4.932,4.932,0,1,0,0-3.288H32.989V16H23.125v3.288H9.561a4.932,4.932,0,1,0,0,3.287h6.245A24.912,24.912,0,0,0,3.351,42.587a4.919,4.919,0,1,0,3.345.057,21.48,21.48,0,0,1,16.429-19.4v2.623h9.864V23.241a21.48,21.48,0,0,1,16.429,19.4,4.944,4.944,0,1,0,3.345-.057Z" fill="#fff"/>
    <path id="Path_14" data-name="Path 14" d="M151,436h23.016v6.576H151Z" transform="translate(-134.451 -373.969)" fill="#fff"/>
    <path id="Path_15" data-name="Path 15" d="M148.9,163.671l5.789,11.58h11.9l5.789-11.58-10.093-16.822v18.539H159V146.849Z" transform="translate(-132.585 -116.508)" fill="#fff"/>
  </g>
</svg>
