<svg xmlns="http://www.w3.org/2000/svg" width="480.001" height="557.999" viewBox="0 0 480.001 557.999">
  <path id="Subtraction_12" data-name="Subtraction 12" d="M515,575a380.007,380.007,0,0,1-38.239-1.93,375.112,375.112,0,0,1-37.135-5.668c-10.248-2.1-20.552-4.668-30.627-7.641V462.08A279.248,279.248,0,0,0,515.5,483C670.72,483,797,356.719,797,201.5A281.19,281.19,0,0,0,727.942,17H840.677a371.7,371.7,0,0,1,46.392,145.76,379.685,379.685,0,0,1,0,76.479,371.929,371.929,0,0,1-61.943,170.867,376.031,376.031,0,0,1-101.02,101.02A371.914,371.914,0,0,1,553.24,573.07,380.006,380.006,0,0,1,515,575Z" transform="translate(-409 -17)" fill="#fff" opacity="0.07"/>
</svg>
